<svg xmlns="http://www.w3.org/2000/svg" width="25.715" height="29.482" viewBox="0 0 25.715 29.482">
  <g id="absent" transform="translate(-408.055 -1906.889)">
    <g id="Group_41" data-name="Group 41" transform="translate(408.055 1906.889)">
      <path id="Path_15" data-name="Path 15" d="M420.9,1936.371a6.132,6.132,0,0,1-3.379-1.014l-6.7-4.419a6.125,6.125,0,0,1-2.762-5.127V1913.03a6.148,6.148,0,0,1,6.141-6.141h13.433a6.148,6.148,0,0,1,6.141,6.141v12.777a6.124,6.124,0,0,1-2.769,5.132l-6.73,4.422A6.133,6.133,0,0,1,420.9,1936.371Zm-6.7-27.425a4.089,4.089,0,0,0-4.084,4.084v12.781a4.073,4.073,0,0,0,1.837,3.41l6.7,4.419a4.082,4.082,0,0,0,4.491,0l6.73-4.422a4.071,4.071,0,0,0,1.841-3.413V1913.03a4.089,4.089,0,0,0-4.084-4.084Z" transform="translate(-408.055 -1906.889)" fill="#fff"/>
    </g>
    <g id="Group_42" data-name="Group 42" transform="translate(414.682 1916.217)">
      <path id="Path_16" data-name="Path 16" d="M441.079,1954.912a2.675,2.675,0,0,1-1.9-.785l-2.78-2.78,1.454-1.454,2.78,2.78a.628.628,0,0,0,.888,0l5.884-5.885,1.454,1.454-5.884,5.885A2.675,2.675,0,0,1,441.079,1954.912Z" transform="translate(-436.401 -1946.788)" fill="#fff"/>
    </g>
  </g>
</svg>
