<svg xmlns="http://www.w3.org/2000/svg" width="25.912" height="25.912" viewBox="0 0 25.912 25.912">
  <g id="Group_51" data-name="Group 51" transform="translate(-671.505 -2081.946)">
    <g id="Group_46" data-name="Group 46" transform="translate(672.236 2081.946)">
      <g id="Group_45" data-name="Group 45" transform="translate(0)">
        <path id="Path_18" data-name="Path 18" d="M691.862,2107.126a3.287,3.287,0,0,1-2.731-1.453l-3.4-4.951a4.237,4.237,0,0,1,.5-5.392,1.029,1.029,0,0,1,1.456,1.456,2.179,2.179,0,0,0-.255,2.772l3.4,4.951a1.281,1.281,0,0,0,2.306-.448l4.1-18.5a1.28,1.28,0,0,0-1.527-1.528l-18.5,4.1a1.28,1.28,0,0,0-.447,2.306l4.951,3.4a2.179,2.179,0,0,0,2.77-.257l4.12-4.12a2.267,2.267,0,1,1,3.206,3.206,1.029,1.029,0,1,1-1.455-1.455.235.235,0,0,0,0-.295.208.208,0,0,0-.295,0l-4.12,4.12a4.233,4.233,0,0,1-5.391.5l-4.951-3.4a3.339,3.339,0,0,1,1.167-6.014l18.5-4.1a3.34,3.34,0,0,1,3.983,3.983l-4.1,18.5a3.3,3.3,0,0,1-2.625,2.557A3.431,3.431,0,0,1,691.862,2107.126Z" transform="translate(-674.14 -2081.946)"/>
      </g>
    </g>
    <g id="Group_47" data-name="Group 47" transform="translate(676.665 2098.42)">
      <path id="Path_19" data-name="Path 19" d="M691.135,2145.606a1.029,1.029,0,0,1-.728-1.757l2.218-2.218a1.029,1.029,0,0,1,1.456,1.456l-2.218,2.218A1.025,1.025,0,0,1,691.135,2145.606Z" transform="translate(-690.105 -2141.329)"/>
    </g>
    <g id="Group_50" data-name="Group 50" transform="translate(671.505 2095.393)">
      <g id="Group_48" data-name="Group 48" transform="translate(0 0)">
        <path id="Path_20" data-name="Path 20" d="M672.535,2135.7a1.029,1.029,0,0,1-.728-1.757l3.222-3.222a1.029,1.029,0,0,1,1.456,1.456l-3.222,3.222A1.026,1.026,0,0,1,672.535,2135.7Z" transform="translate(-671.505 -2130.418)"/>
      </g>
      <g id="Group_49" data-name="Group 49" transform="translate(7.183 7.183)">
        <path id="Path_21" data-name="Path 21" d="M698.428,2161.592a1.03,1.03,0,0,1-.728-1.758l3.222-3.222a1.029,1.029,0,0,1,1.456,1.456l-3.222,3.222A1.026,1.026,0,0,1,698.428,2161.592Z" transform="translate(-697.398 -2156.31)"/>
      </g>
    </g>
  </g>
</svg>
