<svg xmlns="http://www.w3.org/2000/svg" width="27" height="27" viewBox="0 0 27 27">
  <g id="Group_89" data-name="Group 89" transform="translate(-673.36 -1465.265)">
    <g id="Group_84" data-name="Group 84" transform="translate(675.344 1465.265)">
      <path id="Path_28" data-name="Path 28" d="M696.921,1474.965l-4.457,4.457a3.469,3.469,0,0,0-.407,4.415l3.676,5.357a2.5,2.5,0,0,0,4.5-.874l4.432-20.014a2.5,2.5,0,0,0-2.981-2.981l-20.014,4.432a2.5,2.5,0,0,0-.874,4.5l5.357,3.677a3.468,3.468,0,0,0,4.415-.407l4.457-4.458a1.339,1.339,0,0,1,1.894,0h0A1.339,1.339,0,0,1,696.921,1474.965Z" transform="translate(-679.711 -1465.265)"/>
    </g>
    <g id="Group_85" data-name="Group 85" transform="translate(678.915 1481.893)">
      <path id="Path_29" data-name="Path 29" d="M693.119,1525.761a1.16,1.16,0,0,1-.82-1.979l2.5-2.5a1.159,1.159,0,1,1,1.639,1.64l-2.5,2.5A1.155,1.155,0,0,1,693.119,1525.761Z" transform="translate(-691.959 -1520.944)"/>
    </g>
    <g id="Group_88" data-name="Group 88" transform="translate(673.36 1478.229)">
      <g id="Group_86" data-name="Group 86" transform="translate(0 0)">
        <path id="Path_30" data-name="Path 30" d="M674.52,1515.982a1.159,1.159,0,0,1-.82-1.979l3.629-3.628a1.159,1.159,0,0,1,1.639,1.64l-3.629,3.628A1.156,1.156,0,0,1,674.52,1515.982Z" transform="translate(-673.36 -1510.035)"/>
      </g>
      <g id="Group_87" data-name="Group 87" transform="translate(8.089 8.088)">
        <path id="Path_31" data-name="Path 31" d="M700.412,1541.872a1.159,1.159,0,0,1-.82-1.979l3.628-3.629a1.159,1.159,0,0,1,1.64,1.64l-3.628,3.629A1.155,1.155,0,0,1,700.412,1541.872Z" transform="translate(-699.253 -1535.925)"/>
      </g>
    </g>
  </g>
</svg>
