<svg xmlns="http://www.w3.org/2000/svg" width="35.089" height="29.482" viewBox="0 0 35.089 29.482">
  <g id="Exams" transform="translate(-7324.293 -553.485)">
    <g id="Group_33" data-name="Group 33" transform="translate(7324.293 553.485)">
      <g id="Group_31" data-name="Group 31" transform="translate(0 0)">
        <path id="Path_11" data-name="Path 11" d="M7332.024,579.133l-.024.025-2.975,2.89a.875.875,0,0,1-1.239-.02l-2.794-2.9a2.481,2.481,0,0,1-.7-1.733V556.5a3.083,3.083,0,0,1,3.011-3.011h2.441a3.011,3.011,0,0,1,3.012,3.011v20.871A2.506,2.506,0,0,1,7332.024,579.133Zm-3.588,1.05,2.346-2.279a.881.881,0,0,0,.227-.537V556.5a1.264,1.264,0,0,0-1.264-1.263H7327.3a1.3,1.3,0,0,0-1.264,1.263v20.9a.742.742,0,0,0,.211.519Z" transform="translate(-7324.293 -553.485)" fill="#fff"/>
      </g>
      <g id="Group_32" data-name="Group 32" transform="translate(0.227 4.216)">
        <path id="Path_12" data-name="Path 12" d="M7333.077,574.041a.871.871,0,0,1-.618.256H7326.2a.874.874,0,1,1,0-1.748h6.264a.874.874,0,0,1,.618,1.492Z" transform="translate(-7325.321 -572.549)" fill="#fff"/>
      </g>
    </g>
    <g id="Group_34" data-name="Group 34" transform="translate(7335.39 553.485)">
      <path id="Path_13" data-name="Path 13" d="M7394.749,582.967h-16.556a3.722,3.722,0,0,1-3.718-3.718V557.2a3.722,3.722,0,0,1,3.718-3.718h16.556a3.723,3.723,0,0,1,3.719,3.718v22.046A3.723,3.723,0,0,1,7394.749,582.967Zm-16.556-27.537a1.774,1.774,0,0,0-1.772,1.773v22.046a1.774,1.774,0,0,0,1.772,1.773h16.556a1.775,1.775,0,0,0,1.772-1.773V557.2a1.775,1.775,0,0,0-1.772-1.773Z" transform="translate(-7374.475 -553.485)" fill="#fff"/>
    </g>
    <g id="Group_38" data-name="Group 38" transform="translate(7340.797 559.518)">
      <g id="Group_35" data-name="Group 35" transform="translate(0 0)">
        <rect id="Rectangle_21" data-name="Rectangle 21" width="13.178" height="1.945" fill="#fff"/>
      </g>
      <g id="Group_36" data-name="Group 36" transform="translate(0 4.99)">
        <rect id="Rectangle_22" data-name="Rectangle 22" width="13.178" height="1.945" fill="#fff"/>
      </g>
      <g id="Group_37" data-name="Group 37" transform="translate(6.797 9.98)">
        <rect id="Rectangle_23" data-name="Rectangle 23" width="6.381" height="1.945" fill="#fff"/>
      </g>
    </g>
  </g>
</svg>
