<svg xmlns="http://www.w3.org/2000/svg" width="28.27" height="28.27" viewBox="0 0 28.27 28.27">
  <g id="Files" transform="translate(-3213.254 -1033.214)">
    <g id="Group_23" data-name="Group 23" transform="translate(3213.254 1033.214)">
      <path id="Path_7" data-name="Path 7" d="M3237.263,1061.484h-19.748a4.266,4.266,0,0,1-4.261-4.261v-19.748a4.266,4.266,0,0,1,4.261-4.261h5.156a4.263,4.263,0,0,1,4.025,2.863l.746,2.148a2.291,2.291,0,0,0,2.162,1.538h7.659a4.266,4.266,0,0,1,4.261,4.261v13.2A4.266,4.266,0,0,1,3237.263,1061.484Zm-19.748-26.3a2.292,2.292,0,0,0-2.289,2.289v19.748a2.291,2.291,0,0,0,2.289,2.288h19.748a2.291,2.291,0,0,0,2.289-2.288v-13.2a2.291,2.291,0,0,0-2.289-2.288H3229.6a4.265,4.265,0,0,1-4.025-2.863l-.746-2.148a2.29,2.29,0,0,0-2.162-1.538Z" transform="translate(-3213.254 -1033.214)"/>
    </g>
    <g id="Group_24" data-name="Group 24" transform="translate(3219.747 1039.763)">
      <rect id="Rectangle_19" data-name="Rectangle 19" width="9.858" height="1.972" transform="translate(0)"/>
    </g>
  </g>
</svg>
