<svg xmlns="http://www.w3.org/2000/svg" width="25.578" height="27.814" viewBox="0 0 25.578 27.814">
  <g id="Group_44" data-name="Group 44" transform="translate(-916.82 -1144.43)">
    <path id="Path_17" data-name="Path 17" d="M940.008,1153.862l-7.041-7.041a4.748,4.748,0,0,0-6.714,0l-7.042,7.041a4.749,4.749,0,0,0-1.391,3.357v9.277a4.748,4.748,0,0,0,4.748,4.748h.813a2.071,2.071,0,0,0,2.071-2.071v-4.015a1.86,1.86,0,0,1,1.86-1.86h4.593a1.86,1.86,0,0,1,1.861,1.86v4.015a2.071,2.071,0,0,0,2.071,2.071h.814a4.748,4.748,0,0,0,4.748-4.748v-9.277A4.748,4.748,0,0,0,940.008,1153.862Z" stroke-width="2"/>
  </g>
</svg>
