<svg xmlns="http://www.w3.org/2000/svg" width="29.559" height="29.482" viewBox="0 0 29.559 29.482">
  <g id="Homework" transform="translate(-1867.11 -871.848)">
    <g id="Group_26" data-name="Group 26" transform="translate(1867.11 876.441)">
      <path id="Path_8" data-name="Path 8" d="M1889,915.723h-18.89a3,3,0,0,1-3-3v-18.89a3,3,0,0,1,3-3H1889a3,3,0,0,1,3,3v18.89A3,3,0,0,1,1889,915.723Zm-18.89-22.977a1.089,1.089,0,0,0-1.087,1.087v18.89a1.089,1.089,0,0,0,1.087,1.087H1889a1.089,1.089,0,0,0,1.087-1.087v-18.89a1.089,1.089,0,0,0-1.087-1.087Z" transform="translate(-1867.11 -890.833)" fill="#fff"/>
    </g>
    <rect id="Rectangle_20" data-name="Rectangle 20" width="11.973" height="10.414" transform="translate(1887.655 872.33) rotate(45)" fill="#ffd27b"/>
    <g id="Group_29" data-name="Group 29" transform="translate(1872.111 871.848)">
      <g id="Group_27" data-name="Group 27">
        <path id="Path_9" data-name="Path 9" d="M1893.3,896.273h-.038l-4.537-.066a.957.957,0,0,1-.942-.973l.079-4.4a2.713,2.713,0,0,1,.8-1.881l16.168-16.169a3.373,3.373,0,0,1,4.658,0l1.889,1.889a3.294,3.294,0,0,1,0,4.658l-16.145,16.144A2.745,2.745,0,0,1,1893.3,896.273Zm-3.588-1.964,3.578.052a.965.965,0,0,0,.591-.24l16.144-16.145a1.383,1.383,0,0,0,0-1.954l-1.889-1.889a1.415,1.415,0,0,0-1.954,0L1890.012,890.3a.815.815,0,0,0-.239.563Z" transform="translate(-1887.781 -871.848)" fill="#fff"/>
      </g>
      <g id="Group_28" data-name="Group 28" transform="translate(15.335 2.437)">
        <path id="Path_10" data-name="Path 10" d="M1956.974,888.681a.954.954,0,0,1-.676-.28l-4.846-4.846a.956.956,0,0,1,1.352-1.352l4.846,4.846a.956.956,0,0,1-.676,1.632Z" transform="translate(-1951.172 -881.923)" fill="#fff"/>
      </g>
    </g>
  </g>
</svg>
