<svg xmlns="http://www.w3.org/2000/svg" width="29.637" height="28.65" viewBox="0 0 29.637 28.65">
  <g id="Marks" transform="translate(-400.002 -1035.31)">
    <path id="Path_14" data-name="Path 14" d="M408.594,1063.96a4.756,4.756,0,0,1-4.674-5.554l.528-3.081a2.68,2.68,0,0,0-.771-2.371l-2.238-2.182a4.747,4.747,0,0,1,2.63-8.1l3.094-.449a2.678,2.678,0,0,0,2.017-1.466l1.383-2.8a4.747,4.747,0,0,1,8.513,0l1.383,2.8a2.679,2.679,0,0,0,2.017,1.466l3.094.449a4.747,4.747,0,0,1,2.631,8.1l-2.239,2.182a2.679,2.679,0,0,0-.77,2.371l.528,3.082a4.747,4.747,0,0,1-6.887,5l-2.767-1.455a2.678,2.678,0,0,0-2.493,0l-2.767,1.455A4.747,4.747,0,0,1,408.594,1063.96Zm6.227-26.582a2.628,2.628,0,0,0-2.4,1.493l-1.383,2.8a4.745,4.745,0,0,1-3.574,2.6l-3.094.449a2.679,2.679,0,0,0-1.485,4.57l2.239,2.182a4.746,4.746,0,0,1,1.365,4.2l-.528,3.081a2.679,2.679,0,0,0,3.887,2.824l2.767-1.455a4.745,4.745,0,0,1,4.418,0l2.767,1.455a2.679,2.679,0,0,0,3.887-2.824l-.528-3.081a4.746,4.746,0,0,1,1.365-4.2l2.239-2.182a2.679,2.679,0,0,0-1.485-4.57l-3.094-.449a4.746,4.746,0,0,1-3.574-2.6l-1.383-2.8A2.628,2.628,0,0,0,414.821,1037.378Z" fill="#fff"/>
  </g>
</svg>
