<svg width="20.273" height="26.269" xmlns="http://www.w3.org/2000/svg">

 <g>
  <title>Layer 1</title>
  <g data-name="Group 54" id="Group_54">
   <g data-name="Group 52" id="Group_52">
    <path fill="#8e8e8e" d="m13.80301,21.61799l-7.332,0a6.478,6.478 0 0 1 -6.471,-6.471l0,-0.374a6.484,6.484 0 0 1 1.462,-4.1l0.98,-1.2a4.764,4.764 0 0 0 1.073,-3.009a6.479,6.479 0 0 1 6.471,-6.471l0.3,0a6.479,6.479 0 0 1 6.471,6.471a4.762,4.762 0 0 0 1.074,3.009l0.98,1.2a6.483,6.483 0 0 1 1.462,4.1l0,0.374a6.478,6.478 0 0 1 -6.47,6.471zm-3.816,-19.9a4.757,4.757 0 0 0 -4.752,4.752a6.483,6.483 0 0 1 -1.462,4.1l-0.98,1.2a4.762,4.762 0 0 0 -1.074,3.009l0,0.374a4.757,4.757 0 0 0 4.751,4.752l7.332,0a4.757,4.757 0 0 0 4.751,-4.752l0,-0.374a4.763,4.763 0 0 0 -1.073,-3.009l-0.98,-1.2a6.483,6.483 0 0 1 -1.462,-4.1a4.757,4.757 0 0 0 -4.752,-4.752l-0.299,0z" data-name="Path 22" id="Path_22"/>
   </g>
   <g data-name="Group 53" id="Group_53">
    <path fill="#8e8e8e" d="m10.13705,26.26897a3.38,3.38 0 0 1 -3.546,-2.538a0.86,0.86 0 1 1 1.7,-0.274a2.111,2.111 0 0 0 3.7,0a0.86,0.86 0 1 1 1.7,0.274a3.38,3.38 0 0 1 -3.554,2.538z" data-name="Path 23" id="Path_23"/>
   </g>
  </g>
  <ellipse ry="7.24929" rx="9.43658" id="svg_1" cy="14.00942" cx="10.074" fill="#8e8e8e"/>
  <ellipse ry="7.24929" rx="6.1244" id="svg_4" cy="8.63494" cx="10.26149" fill="#8e8e8e"/>
 </g>
</svg>