<svg id="Layer_1" data-name="Layer 1" xmlns="http://www.w3.org/2000/svg" viewBox="0 0 20.27 26.29"><defs></defs><g id="Group_54" data-name="Group 54"><g id="Group_52" data-name="Group 52"><path id="Path_22" data-name="Path 22" class="cls-1" d="M13.8,21.62H6.47A6.48,6.48,0,0,1,0,15.15v-.38a6.52,6.52,0,0,1,1.46-4.1l1-1.2a4.78,4.78,0,0,0,1.08-3A6.47,6.47,0,0,1,10,0h.3a6.49,6.49,0,0,1,6.47,6.47,4.77,4.77,0,0,0,1.07,3l1,1.2a6.47,6.47,0,0,1,1.46,4.1v.38A6.48,6.48,0,0,1,13.8,21.62Z" transform="translate(0 0.01)"/></g><g id="Group_53" data-name="Group 53"><path id="Path_23" data-name="Path 23" class="cls-1" d="M10.14,26.27a3.38,3.38,0,0,1-3.55-2.54.87.87,0,0,1,.71-1c.47-.07,5.21-.07,5.68,0a.86.86,0,0,1,.71,1A3.38,3.38,0,0,1,10.14,26.27Z" transform="translate(0 0.01)"/></g></g></svg>