<svg xmlns="http://www.w3.org/2000/svg" width="20.686" height="25.876" viewBox="0 0 20.686 25.876">
  <g id="Group_57" data-name="Group 57" transform="translate(-1444.305 -1765.882)">
    <g id="Group_55" data-name="Group 55" transform="translate(1447.751 1765.882)">
      <path id="Path_24" data-name="Path 24" d="M1465.436,1779.642a6.88,6.88,0,1,1,6.88-6.881A6.889,6.889,0,0,1,1465.436,1779.642Zm0-11.966a5.085,5.085,0,1,0,5.086,5.085A5.091,5.091,0,0,0,1465.436,1767.677Z" transform="translate(-1458.555 -1765.882)"/>
    </g>
    <g id="Group_56" data-name="Group 56" transform="translate(1444.305 1780.091)">
      <path id="Path_25" data-name="Path 25" d="M1461.577,1836.3h-13.884a3.337,3.337,0,0,1-2.77-1.442,3.445,3.445,0,0,1-.405-3.158,10.773,10.773,0,0,1,20.292.171,3.255,3.255,0,0,1-.439,2.986A3.437,3.437,0,0,1,1461.577,1836.3Zm-6.945-9.872a9.007,9.007,0,0,0-8.43,5.889,1.63,1.63,0,0,0,.191,1.513,1.565,1.565,0,0,0,1.3.676h13.884a1.637,1.637,0,0,0,1.331-.69,1.478,1.478,0,0,0,.2-1.356A8.981,8.981,0,0,0,1454.632,1826.431Z" transform="translate(-1444.305 -1824.636)"/>
    </g>
  </g>
</svg>
