<svg xmlns="http://www.w3.org/2000/svg" width="24.608" height="29.482" viewBox="0 0 24.608 29.482">
  <g id="Subjects" transform="translate(0 0)">
    <g id="Group_8" data-name="Group 8" transform="translate(0 3.436)">
      <path id="Path_4" data-name="Path 4" d="M4037.184,2590.024h-14.61a3.285,3.285,0,0,1-3.281-3.281v-19.455a3.285,3.285,0,0,1,3.281-3.281h14.61a3.284,3.284,0,0,1,3.281,3.281v19.455A3.284,3.284,0,0,1,4037.184,2590.024Zm-14.61-24.3a1.566,1.566,0,0,0-1.564,1.564v19.455a1.566,1.566,0,0,0,1.564,1.564h14.61a1.566,1.566,0,0,0,1.564-1.564v-19.455a1.566,1.566,0,0,0-1.564-1.564Z" transform="translate(-4019.292 -2564.007)" fill="#fff"/>
    </g>
    <g id="Group_9" data-name="Group 9" transform="translate(3.436 0)">
      <path id="Path_5" data-name="Path 5" d="M4054.792,2572.417V2570.7a1.566,1.566,0,0,0,1.565-1.564V2549.68a1.566,1.566,0,0,0-1.565-1.564h-14.61a1.566,1.566,0,0,0-1.564,1.564H4036.9a3.284,3.284,0,0,1,3.281-3.281h14.61a3.284,3.284,0,0,1,3.281,3.281v19.455A3.285,3.285,0,0,1,4054.792,2572.417Z" transform="translate(-4036.901 -2546.4)" fill="#fff"/>
    </g>
    <g id="Group_10" data-name="Group 10" transform="translate(0.001 17.595)">
      <path id="Path_6" data-name="Path 6" d="M4030.848,2648.451h-2.887a3.285,3.285,0,0,1-3.281-3.281v-1.376a.725.725,0,0,0-.724-.724h-1.376a3.284,3.284,0,0,1-3.281-3.281v-3.225h1.716v3.225a1.566,1.566,0,0,0,1.564,1.564h1.376a2.443,2.443,0,0,1,2.441,2.441v1.376a1.566,1.566,0,0,0,1.564,1.564h2.887Z" transform="translate(-4019.299 -2636.563)" fill="#fff"/>
    </g>
    <g id="Group_14" data-name="Group 14" transform="translate(4.772 8.76)">
      <g id="Group_11" data-name="Group 11" transform="translate(0 0)">
        <rect id="Rectangle_10" data-name="Rectangle 10" width="11.629" height="1.717" fill="#fff"/>
      </g>
      <g id="Group_12" data-name="Group 12" transform="translate(0 4.404)">
        <rect id="Rectangle_11" data-name="Rectangle 11" width="11.629" height="1.717" fill="#fff"/>
      </g>
      <g id="Group_13" data-name="Group 13" transform="translate(5.998 8.807)">
        <rect id="Rectangle_12" data-name="Rectangle 12" width="5.631" height="1.717" fill="#fff"/>
      </g>
    </g>
  </g>
</svg>
